<?xml version="1.0" encoding="utf-8"?>
<svg xmlns="http://www.w3.org/2000/svg" xml:lang="en" height="75px" width="300px" >
  <title xml:lang="en">Lacuna Logo</title>
  <style>
    path {
      fill:#165caa;
      stroke:#165caa;
      stroke-width:1;
    }
    #TxtPath {
      fill:#fff;
      stroke:#fff;
      stroke-width:0;
    }
  </style>
  <path id="TxtPath" d="M25 65 L250 65" />
  <path d="M0 0 L0 65 L20 65 L20 60 L5 60 L5 0 Z" /> <!-- L -->
  <path style="fill-rule:evenodd" d="M35 0 L20 40 L25 40 L29.5 30 L45.5 30 L50 40 L55 40 L40 0 Z M31 25 L44 25 L37.5 7.5 Z" /> <!-- A -->
  <path d="M95 14 A15 15, 0, 1, 0, 95 27 L100 27 A20 20, 0, 1, 1, 100 14 Z" /> <!-- C -->
  <path d="M110 0 L110 29 A12.5 12.5, 0, 1, 0, 135 29 L135 0 L130 0 L130 29 A7.5 7.5, 0, 1, 1, 115 29 L115 0 Z" /> <!-- U -->
  <path d="M150 0 L150 40 L155 40 L155 10 L175 40 L180 40 L180 0 L175 0 L175 30 L155 0 Z" /> <!-- N -->
  <path style="fill-rule:evenodd" d="M197 0 L197 40 L202 40 L202 30 L218 30 L245 65 L250 65 L203 0 Z M202 25 L215 25 L202 7.5 Z" /> <!-- A -->
  <text style="font-family:sans-serif;font-size:1.22em">
    <textPath href="#TxtPath">
      TECHNOLOGIES, LLC
    </textPath>
  </text>
</svg>